<svg width="16" height="11" viewBox="0 0 16 11" fill="none" xmlns="http://www.w3.org/2000/svg">
<path d="M10.583 10.6106C10.3678 10.8266 10.019 10.8296 9.79995 10.6175C9.57608 10.4007 9.57333 10.0425 9.79383 9.82221L11.8646 7.75388C12.4951 7.12409 12.0491 6.04636 11.1579 6.04636H1.23557C0.933822 6.04636 0.689209 5.80174 0.689209 5.5C0.689209 5.19825 0.933822 4.95364 1.23557 4.95364H11.1579C12.0491 4.95364 12.4951 3.87591 11.8646 3.24612L9.77053 1.15451C9.55053 0.934768 9.55612 0.57653 9.78288 0.363765C9.99913 0.160858 10.3373 0.165766 10.5475 0.374866L14.9793 4.7819C15.3712 5.17166 15.3726 5.80546 14.9824 6.19694L10.583 10.6106Z" fill="black"/>
</svg>
