<svg width="24" height="33" viewBox="0 0 24 33" fill="none" xmlns="http://www.w3.org/2000/svg">
    <path d="M23.1352 11.0419C23.5224 11.4278 23.5279 12.0531 23.1475 12.4458L22.8571 12.7457C22.4683 13.1471 21.8261 13.152 21.4312 12.7567L14.808 6.12557C14.1782 5.49503 13.1004 5.94107 13.1004 6.83226L13.1004 31.3334C13.1004 31.8857 12.6527 32.3334 12.1004 32.3334H11.7329C11.1806 32.3334 10.7329 31.8857 10.7329 31.3334L10.7329 6.83226C10.7329 5.94107 9.65516 5.49503 9.02537 6.12557L2.36096 12.7978C1.96169 13.1976 1.31077 13.1874 0.924182 12.7754L0.660956 12.4949C0.292276 12.1019 0.301195 11.4875 0.681125 11.1055L11.1844 0.543291C11.5742 0.151349 12.208 0.14995 12.5994 0.540167L23.1352 11.0419Z" fill="#006E07"/>
</svg>
