<svg width="70" height="36" viewBox="0 0 70 36" fill="none" xmlns="http://www.w3.org/2000/svg">
<path fill-rule="evenodd" clip-rule="evenodd" d="M17.0389 0.483895C15.7051 1.0408 12.9667 1.40923 10.1391 1.41213C8.56403 1.41379 8.46151 1.44237 8.3285 1.91726C8.10474 2.71647 8.84067 4.62016 9.6826 5.42103C10.4199 6.12207 10.5811 6.18089 14.0481 7.01696C15.1417 7.2806 16.2363 8.26352 16.5316 9.24684C16.6586 9.67016 16.8237 10.8535 16.8983 11.8764C17.1034 14.6912 17.0576 14.6029 18.4556 14.8836C20.3884 15.2715 24.365 14.5868 26.0094 13.583C27.5246 12.658 27.7341 12.196 27.8195 9.58545C27.89 7.43842 27.8461 7.12424 27.3355 6.13077C27.0266 5.52976 26.3795 4.61871 25.8976 4.10613C25.4157 3.59355 24.7643 2.82727 24.4502 2.40333C23.7279 1.42829 22.3031 0.675466 20.4306 0.279485C18.5265 -0.123124 18.4872 -0.120638 17.0389 0.483895ZM6.26387 7.03477C6.09207 7.55916 5.8085 7.82176 5.11229 8.10177C3.01856 8.94343 2.54957 9.24208 1.23634 10.5702C-0.36276 12.1879 -0.387699 12.5812 1.02852 13.8489C1.779 14.5207 2.05887 14.6278 3.40073 14.756C4.23734 14.8359 5.25268 15.0816 5.65679 15.3021C6.86495 15.9611 6.96678 16.4196 6.40935 18.6928C5.78564 21.2358 5.79626 22.1868 6.46246 23.4703C7.34341 25.1677 7.74451 26.4708 7.99182 28.4407C8.265 30.617 8.27862 33.6156 8.02161 35.0163L7.84103 36H9.61679H11.3925L11.7611 35.1581C12.098 34.3889 12.1728 34.337 12.6266 34.5548C12.8997 34.6859 13.2953 35.0643 13.5052 35.3953L13.8871 35.9973L20.0723 35.9988C26.1622 36 26.2537 35.9938 26.0131 35.5906C25.8406 35.3014 25.8438 34.769 26.0244 33.7784C26.5663 30.8017 25.7115 27.4715 23.7351 24.8614C23.2003 24.1552 21.5072 22.3882 19.9725 20.9349C18.4378 19.4817 16.5545 17.4539 15.7871 16.4288C14.4561 14.6504 11.8084 11.7414 9.28427 9.2835C8.6407 8.6568 7.74913 7.73809 7.303 7.24167L6.49202 6.33932L6.26387 7.03477ZM26.9725 14.1827C24.8606 15.4293 23.491 15.7654 20.2632 15.8288C18.69 15.8598 17.3042 15.9735 17.1839 16.0814C16.7888 16.4358 17.652 17.5202 20.3521 20.0611C24.5165 23.9802 26.0422 26.2204 26.7227 29.4164C27.1425 31.387 27.199 31.4437 28.7524 31.4437C29.4897 31.4437 30.863 31.2696 31.804 31.0567C35.719 30.1713 37.615 29.9377 40.0025 30.0468C41.6471 30.1218 42.6502 30.2788 43.4085 30.5797C43.9999 30.8143 44.4837 31.0643 44.4837 31.1354C44.4837 31.2064 44.1126 31.5783 43.6593 31.9619C42.9693 32.5453 42.8744 32.7255 43.0771 33.0654C43.2104 33.2888 43.7115 33.5543 44.1902 33.6556C44.8901 33.8033 45.109 33.971 45.3053 34.5101C45.8073 35.8888 45.8024 35.8878 50.7979 35.655C55.0375 35.4572 55.3423 35.4151 56.3431 34.8891C56.9255 34.583 57.7905 33.9157 58.2655 33.406C58.7405 32.8964 59.2891 32.4801 59.4845 32.4809C59.6799 32.4819 60.7229 33.0509 61.8024 33.7451C64.9314 35.7577 65.5985 36.0008 67.9719 35.9946L70 35.9894L68.306 35.4719C64.2767 34.2409 61.4131 31.7954 58.7899 27.345C57.0509 24.3946 54.7403 22.2912 50.8332 20.1015C48.0105 18.5199 43.9749 17.2392 37.2959 15.8056C33.7144 15.0368 31.547 14.4613 30.6667 14.045C29.9472 13.7049 29.0988 13.4332 28.7813 13.4413C28.4638 13.4494 27.6498 13.783 26.9725 14.1827ZM40.0002 33.5512C39.948 33.702 39.8431 34.1454 39.7672 34.5366C39.6912 34.9278 39.4582 35.4172 39.2495 35.6239C38.8871 35.983 38.9289 36 40.1759 36H41.4817L41.4783 35.2234C41.4764 34.7963 41.3439 34.2146 41.1839 33.9308C40.8596 33.3561 40.1466 33.1275 40.0002 33.5512Z" fill="#006E07"/>
</svg>
