<svg width="24" height="24" viewBox="0 0 24 24" fill="none" xmlns="http://www.w3.org/2000/svg">
<path d="M22.3667 23.4L13.7 14.7667C13.0333 15.3444 12.2611 15.7944 11.3833 16.1167C10.5055 16.4389 9.58888 16.6 8.63333 16.6C6.36666 16.6 4.44999 15.8167 2.88333 14.25C1.31666 12.6833 0.533325 10.7778 0.533325 8.53333C0.533325 6.31111 1.31666 4.41667 2.88333 2.85C4.44999 1.28333 6.35555 0.5 8.59999 0.5C10.8444 0.5 12.75 1.28333 14.3167 2.85C15.8833 4.41667 16.6667 6.31111 16.6667 8.53333C16.6667 9.46667 16.5055 10.3778 16.1833 11.2667C15.8611 12.1556 15.4 12.9556 14.8 13.6667L23.4667 22.3L22.3667 23.4ZM8.63333 15.1C10.4333 15.1 11.9667 14.4611 13.2333 13.1833C14.5 11.9056 15.1333 10.3556 15.1333 8.53333C15.1333 6.71111 14.5 5.16667 13.2333 3.9C11.9667 2.63333 10.4333 2 8.63333 2C6.78888 2 5.23333 2.63333 3.96666 3.9C2.69999 5.16667 2.06666 6.71111 2.06666 8.53333C2.06666 10.3556 2.69999 11.9056 3.96666 13.1833C5.23333 14.4611 6.78888 15.1 8.63333 15.1Z" fill="white"/>
</svg>
