<svg width="36" height="36" viewBox="0 0 36 36" fill="none" xmlns="http://www.w3.org/2000/svg">
<path d="M33.55 35.1L20.55 22.15C19.55 23.0167 18.3917 23.6917 17.075 24.175C15.7583 24.6583 14.3833 24.9 12.95 24.9C9.54999 24.9 6.67499 23.725 4.32499 21.375C1.97499 19.025 0.799988 16.1667 0.799988 12.8C0.799988 9.46667 1.97499 6.625 4.32499 4.275C6.67499 1.925 9.53332 0.75 12.9 0.75C16.2667 0.75 19.125 1.925 21.475 4.275C23.825 6.625 25 9.46667 25 12.8C25 14.2 24.7583 15.5667 24.275 16.9C23.7917 18.2333 23.1 19.4333 22.2 20.5L35.2 33.45L33.55 35.1ZM12.95 22.65C15.65 22.65 17.95 21.6917 19.85 19.775C21.75 17.8583 22.7 15.5333 22.7 12.8C22.7 10.0667 21.75 7.75 19.85 5.85C17.95 3.95 15.65 3 12.95 3C10.1833 3 7.84999 3.95 5.94999 5.85C4.04999 7.75 3.09999 10.0667 3.09999 12.8C3.09999 15.5333 4.04999 17.8583 5.94999 19.775C7.84999 21.6917 10.1833 22.65 12.95 22.65Z" fill="black"/>
</svg>
