<svg width="11" height="15" viewBox="0 0 11 15" fill="none" xmlns="http://www.w3.org/2000/svg">
<path d="M10.6106 5.10618C10.8266 5.32144 10.8296 5.67023 10.6175 5.88926C10.4007 6.11313 10.0425 6.11588 9.82221 5.89538L7.75388 3.82461C7.12409 3.19407 6.04636 3.64011 6.04636 4.5313L6.04636 14.4536C6.04636 14.7554 5.80174 15 5.5 15C5.19825 15 4.95364 14.7554 4.95364 14.4536L4.95364 4.5313C4.95364 3.64011 3.87591 3.19407 3.24612 3.82461L1.15451 5.91868C0.934768 6.13868 0.57653 6.13309 0.363765 5.90633C0.160858 5.69008 0.165766 5.35194 0.374866 5.14167L4.7819 0.709917C5.17166 0.317976 5.80546 0.316577 6.19694 0.706794L10.6106 5.10618Z" fill="#006E07"/>
</svg>
